<mxfile modified="2023-02-27T07:16:29.487Z" host="app.diagrams.net" agent="5.0 (Windows NT 10.0; Win64; x64) AppleWebKit/537.36 (KHTML, like Gecko) Chrome/110.0.0.0 Safari/537.36" etag="dlZMgJfJF-wfg89YkT_E" version="20.8.23" type="github">
  <diagram id="WI9T0HZ2pTsCkuznbFz-" name="Page-1">
    <mxGraphModel dx="2269" dy="1246" grid="1" gridSize="10" guides="1" tooltips="1" connect="1" arrows="1" fold="1" page="1" pageScale="1" pageWidth="1169" pageHeight="827" math="0" shadow="0">
      <root>
        <mxCell id="0" />
        <mxCell id="1" parent="0" />
        <mxCell id="7-IjwTOYMT7MXyIy--N_-3" value="Azure VM" style="shape=image;verticalLabelPosition=bottom;labelBackgroundColor=#ffffff;verticalAlign=top;aspect=fixed;imageAspect=0;image=data:image/svg+xml,PHN2ZyB4bWxuczpjYz0iaHR0cDovL2NyZWF0aXZlY29tbW9ucy5vcmcvbnMjIiB4bWxuczpkYz0iaHR0cDovL3B1cmwub3JnL2RjL2VsZW1lbnRzLzEuMS8iIHhtbG5zOmlua3NjYXBlPSJodHRwOi8vd3d3Lmlua3NjYXBlLm9yZy9uYW1lc3BhY2VzL2lua3NjYXBlIiB4bWxuczpyZGY9Imh0dHA6Ly93d3cudzMub3JnLzE5OTkvMDIvMjItcmRmLXN5bnRheC1ucyMiIHhtbG5zOnNvZGlwb2RpPSJodHRwOi8vc29kaXBvZGkuc291cmNlZm9yZ2UubmV0L0RURC9zb2RpcG9kaS0wLmR0ZCIgeG1sbnM6c3ZnPSJodHRwOi8vd3d3LnczLm9yZy8yMDAwL3N2ZyIgeG1sbnM9Imh0dHA6Ly93d3cudzMub3JnLzIwMDAvc3ZnIiB4bWxuczp4bGluaz0iaHR0cDovL3d3dy53My5vcmcvMTk5OS94bGluayIgdmVyc2lvbj0iMS4xIiBpZD0ic3ZnMTM4NzI0IiBpbmtzY2FwZTp2ZXJzaW9uPSIwLjkyLjMgKDI0MDU1NDYsIDIwMTgtMDMtMTEpIiBzb2RpcG9kaTpkb2NuYW1lPSJhenVyZV92aXJ0dWFsX21hY2hpbmUuc3ZnIiB4PSIwcHgiIHk9IjBweCIgdmlld0JveD0iMCAwIDgwLjMzIDU5LjA2IiBzdHlsZT0iZW5hYmxlLWJhY2tncm91bmQ6bmV3IDAgMCA4MC4zMyA1OS4wNjsiIHhtbDpzcGFjZT0icHJlc2VydmUiPiYjeGE7PHNvZGlwb2RpOm5hbWVkdmlldyBib3JkZXJjb2xvcj0iIzY2NjY2NiIgYm9yZGVyb3BhY2l0eT0iMSIgZml0LW1hcmdpbi1ib3R0b209IjAiIGZpdC1tYXJnaW4tbGVmdD0iMCIgZml0LW1hcmdpbi1yaWdodD0iMCIgZml0LW1hcmdpbi10b3A9IjAiIGdyaWR0b2xlcmFuY2U9IjEwIiBndWlkZXRvbGVyYW5jZT0iMTAiIGlkPSJuYW1lZHZpZXcxMzg3MjYiIGlua3NjYXBlOmN1cnJlbnQtbGF5ZXI9InN2ZzEzODcyNCIgaW5rc2NhcGU6Y3g9IjUzLjUzMTY3NyIgaW5rc2NhcGU6Y3k9IjM5LjM3MTEzMyIgaW5rc2NhcGU6cGFnZW9wYWNpdHk9IjAiIGlua3NjYXBlOnBhZ2VzaGFkb3c9IjIiIGlua3NjYXBlOndpbmRvdy1oZWlnaHQ9IjEwMTciIGlua3NjYXBlOndpbmRvdy1tYXhpbWl6ZWQ9IjEiIGlua3NjYXBlOndpbmRvdy13aWR0aD0iMTkyMCIgaW5rc2NhcGU6d2luZG93LXg9Ii04IiBpbmtzY2FwZTp3aW5kb3cteT0iLTgiIGlua3NjYXBlOnpvb209IjEwLjczNjY4NyIgb2JqZWN0dG9sZXJhbmNlPSIxMCIgcGFnZWNvbG9yPSIjZmZmZmZmIiBzaG93Z3JpZD0iZmFsc2UiPiYjeGE7CTwvc29kaXBvZGk6bmFtZWR2aWV3PiYjeGE7PGcgaWQ9ImcxMzg3MjIiIHRyYW5zZm9ybT0idHJhbnNsYXRlKC0wLjc2MjAwMjY1LC0wLjc0OTk5NDI3KSI+JiN4YTsJPHRpdGxlIGlkPSJ0aXRsZTEzODY5MiI+UGFnZS0xPC90aXRsZT4mI3hhOwk8ZyBpZD0iZ3JvdXA4NjIyLTEiIHRyYW5zZm9ybT0idHJhbnNsYXRlKDAuNzUwMTI0LC0wLjc1MDkwNikiPiYjeGE7CQk8dGl0bGUgaWQ9InRpdGxlMTM4Njk0Ij5BenVyZSBWaXJ0dWFsIE1hY2hpbmU8L3RpdGxlPiYjeGE7CQk8ZyBpZD0ic2hhcGU4NjIzLTIiIHRyYW5zZm9ybT0idHJhbnNsYXRlKDI2LjUwNDcsLTcuNDc3NSkiPiYjeGE7CQkJPHRpdGxlIGlkPSJ0aXRsZTEzODY5NiI+cGF0aDYyMDM8L3RpdGxlPiYjeGE7CQkJPHBhdGggaWQ9InBhdGgxMzg2OTgiIGlua3NjYXBlOmNvbm5lY3Rvci1jdXJ2YXR1cmU9IjAiIHN0eWxlPSJmaWxsOiNDNkUxRjY7IiBkPSJNNDMuMjIsNjAuNTZIMTQuNjVjLTIuNzMsMC00LjQ2LDAtNS43My0wLjEzICAgICBIOC42N2MtMS0wLjEtMS45OC0wLjM3LTIuOS0wLjhsLTAuMTUtMC4wNmMtNC45MS0yLjMtNy4wMy04LjE1LTQuNzMtMTMuMDZjMS4yNi0yLjY5LDMuNjctNC42Nyw2LjU1LTUuMzggICAgIGMxLjQzLTAuMzQsMi45My0wLjM2LDQuMzctMC4wNmMxLjQ5LTQuMjMsNS40Ny03LjA3LDkuOTUtNy4xMmMxLjYxLTAuMDEsMy4yLDAuMzYsNC42NSwxLjA4YzEuODYtMy4wNSw1LjE3LTQuOTEsOC43NC00LjkyICAgICBjNS4xNiwwLjA5LDkuNSwzLjg5LDEwLjI2LDljNS44NSwxLjM1LDkuNSw3LjIsOC4xNCwxMy4wNWMtMC45NCw0LjA4LTQuMTUsNy4yNS04LjIzLDguMTZDNDQuNjMsNjAuNDgsNDMuOTMsNjAuNTYsNDMuMjIsNjAuNTZ6ICAgICAiLz4mI3hhOwkJPC9nPiYjeGE7CQk8ZyBpZD0ic2hhcGU4NjI0LTQiIHRyYW5zZm9ybT0idHJhbnNsYXRlKDMwLjQ4NTQsLTguODEyNSkiPiYjeGE7CQkJPHRpdGxlIGlkPSJ0aXRsZTEzODcwMSI+cmVjdDYyMDU8L3RpdGxlPiYjeGE7CQkJPHJlY3QgaWQ9InJlY3QxMzg3MDMiIHg9IjAiIHk9IjEwLjMxIiBzdHlsZT0iZmlsbDojMzMzMzMzOyIgd2lkdGg9IjMwLjc1IiBoZWlnaHQ9IjUwLjI1Ii8+JiN4YTsJCTwvZz4mI3hhOwkJPGcgaWQ9InNoYXBlODYyNS02IiB0cmFuc2Zvcm09InRyYW5zbGF0ZSgzNS43MzU0LC00OS4zMTI1KSI+JiN4YTsJCQk8dGl0bGUgaWQ9InRpdGxlMTM4NzA2Ij5yZWN0NjIwNzwvdGl0bGU+JiN4YTsJCQk8cmVjdCBpZD0icmVjdDEzODcwOCIgeD0iMCIgeT0iNTYuMDYiIHN0eWxlPSJmaWxsOiM5MDkwOTA7IiB3aWR0aD0iMjAuMjUiIGhlaWdodD0iNC41Ii8+JiN4YTsJCTwvZz4mI3hhOwkJPGcgaWQ9InNoYXBlODYyNi04IiB0cmFuc2Zvcm09InRyYW5zbGF0ZSgzNS43MzU0LC0zOS41NjI1KSI+JiN4YTsJCQk8dGl0bGUgaWQ9InRpdGxlMTM4NzExIj5yZWN0NjIwOTwvdGl0bGU+JiN4YTsJCQk8cmVjdCBpZD0icmVjdDEzODcxMyIgeD0iMCIgeT0iNTYuMDYiIHN0eWxlPSJmaWxsOiM5MDkwOTA7IiB3aWR0aD0iMjAuMjUiIGhlaWdodD0iNC41Ii8+JiN4YTsJCTwvZz4mI3hhOwkJPGcgaWQ9InNoYXBlODYyNy0xMCI+JiN4YTsJCQk8dGl0bGUgaWQ9InRpdGxlMTM4NzE2Ij5wYXRoNjIxOTwvdGl0bGU+JiN4YTsJCQk8cGF0aCBpZD0icGF0aDEzODcxOCIgaW5rc2NhcGU6Y29ubmVjdG9yLWN1cnZhdHVyZT0iMCIgc3R5bGU9ImZpbGw6I0FBRDJGMjsiIGQ9Ik0xMC40OSw2MC4yOUMzLjI2LDU4LjY2LTEuMjksNTEuNDgsMC4zNCw0NC4yNSAgICAgYzEuMTMtNS4wMiw1LjAzLTguOTUsMTAuMDQtMTAuMTNjMC45NC02LjMsNi4zLTExLDEyLjY3LTExLjFjNC40LDAuMDEsOC40OSwyLjMsMTAuNzksNi4wNmMxLjc3LTAuODgsMy43Mi0xLjM0LDUuNjktMS4zNCAgICAgYzUuNTMsMC4wNSwxMC40NCwzLjU1LDEyLjI5LDguNzZjMS43OC0wLjM4LDMuNjMtMC4zNSw1LjQsMC4wN2M2LjUxLDEuNTksMTAuNDksOC4xNSw4LjksMTQuNjZjLTAuODcsMy41Ny0zLjMyLDYuNTUtNi42NSw4LjExICAgICBsLTAuMTksMC4wOGMtMS4xMywwLjUzLTIuMzUsMC44Ni0zLjU5LDAuOThoLTAuM2MtMS41OCwwLjEzLTMuNzEsMC4xNi03LjA4LDAuMTZIMTMuMDZDMTIuMiw2MC41NywxMS4zMyw2MC40OCwxMC40OSw2MC4yOXoiLz4mI3hhOwkJPC9nPiYjeGE7CTwvZz4mI3hhOzwvZz4mI3hhOzwvc3ZnPg==;" vertex="1" parent="1">
          <mxGeometry x="500.58000000000004" y="206" width="216.95" height="160" as="geometry" />
        </mxCell>
        <mxCell id="7-IjwTOYMT7MXyIy--N_-4" value="MS SQL SERVER" style="shape=image;verticalLabelPosition=bottom;labelBackgroundColor=#ffffff;verticalAlign=top;aspect=fixed;imageAspect=0;image=data:image/svg+xml,PHN2ZyB4bWxuczpkYz0iaHR0cDovL3B1cmwub3JnL2RjL2VsZW1lbnRzLzEuMS8iIHhtbG5zOmNjPSJodHRwOi8vY3JlYXRpdmVjb21tb25zLm9yZy9ucyMiIHhtbG5zOnJkZj0iaHR0cDovL3d3dy53My5vcmcvMTk5OS8wMi8yMi1yZGYtc3ludGF4LW5zIyIgeG1sbnM6c3ZnPSJodHRwOi8vd3d3LnczLm9yZy8yMDAwL3N2ZyIgeG1sbnM9Imh0dHA6Ly93d3cudzMub3JnLzIwMDAvc3ZnIiB4bWxuczpzb2RpcG9kaT0iaHR0cDovL3NvZGlwb2RpLnNvdXJjZWZvcmdlLm5ldC9EVEQvc29kaXBvZGktMC5kdGQiIHhtbG5zOmlua3NjYXBlPSJodHRwOi8vd3d3Lmlua3NjYXBlLm9yZy9uYW1lc3BhY2VzL2lua3NjYXBlIiB2ZXJzaW9uPSIxLjEiIGlkPSJzdmcxMDQ1NzIiIGlua3NjYXBlOnZlcnNpb249IjAuOTIuMyAoMjQwNTU0NiwgMjAxOC0wMy0xMSkiIHNvZGlwb2RpOmRvY25hbWU9InNxbC5zdmciIHg9IjBweCIgeT0iMHB4IiB2aWV3Qm94PSIwIDAgNDYuMDMgNjEuMDIiIHhtbDpzcGFjZT0icHJlc2VydmUiIHdpZHRoPSI0Ni4wMjk5OTkiIGhlaWdodD0iNjEuMDIiPjxtZXRhZGF0YSBpZD0ibWV0YWRhdGExMDQ4Ij48cmRmOlJERj48Y2M6V29yayByZGY6YWJvdXQ9IiI+PGRjOmZvcm1hdD5pbWFnZS9zdmcreG1sPC9kYzpmb3JtYXQ+PGRjOnR5cGUgcmRmOnJlc291cmNlPSJodHRwOi8vcHVybC5vcmcvZGMvZGNtaXR5cGUvU3RpbGxJbWFnZSIvPjxkYzp0aXRsZS8+PC9jYzpXb3JrPjwvcmRmOlJERj48L21ldGFkYXRhPjxkZWZzIGlkPSJkZWZzMTA0NiI+JiN4YTsJJiN4YTsmI3hhOwkmI3hhOyYjeGE7CSYjeGE7JiN4YTsJJiN4YTsmI3hhOwkmI3hhOyYjeGE7CSYjeGE7JiN4YTsJJiN4YTsmI3hhOwkmI3hhOyYjeGE7CSYjeGE7JiN4YTsJCSYjeGE7CSYjeGE7CQkmI3hhOwkmI3hhOwkJJiN4YTsJJiN4YTsJCSYjeGE7CSYjeGE7CQkmI3hhOwkmI3hhOwkJJiN4YTsJJiN4YTsJCSYjeGE7CSYjeGE7CQkmI3hhOwk8L2RlZnM+JiN4YTs8ZmlsdGVyIGlkPSJmaWx0ZXJfMiI+JiN4YTsJPGZlR2F1c3NpYW5CbHVyIGlkPSJmZUdhdXNzaWFuQmx1cjEwNDQ4OSIgc3RkRGV2aWF0aW9uPSIyIi8+JiN4YTs8L2ZpbHRlcj4mI3hhOzxzb2RpcG9kaTpuYW1lZHZpZXcgYm9yZGVyY29sb3I9IiM2NjY2NjYiIGJvcmRlcm9wYWNpdHk9IjEiIGZpdC1tYXJnaW4tYm90dG9tPSIwIiBmaXQtbWFyZ2luLWxlZnQ9IjAiIGZpdC1tYXJnaW4tcmlnaHQ9IjAiIGZpdC1tYXJnaW4tdG9wPSIwIiBncmlkdG9sZXJhbmNlPSIxMCIgZ3VpZGV0b2xlcmFuY2U9IjEwIiBpZD0ibmFtZWR2aWV3MTA0NTc0IiBpbmtzY2FwZTpjdXJyZW50LWxheWVyPSJzdmcxMDQ1NzIiIGlua3NjYXBlOmN4PSIwLjI3NDc3MzkyIiBpbmtzY2FwZTpjeT0iMjcuOTI1ODA5IiBpbmtzY2FwZTpwYWdlb3BhY2l0eT0iMCIgaW5rc2NhcGU6cGFnZXNoYWRvdz0iMiIgaW5rc2NhcGU6d2luZG93LWhlaWdodD0iMTAxNyIgaW5rc2NhcGU6d2luZG93LW1heGltaXplZD0iMSIgaW5rc2NhcGU6d2luZG93LXdpZHRoPSIxOTIwIiBpbmtzY2FwZTp3aW5kb3cteD0iLTgiIGlua3NjYXBlOndpbmRvdy15PSItOCIgaW5rc2NhcGU6em9vbT0iNy42MDUyNjMyIiBvYmplY3R0b2xlcmFuY2U9IjEwIiBwYWdlY29sb3I9IiNmZmZmZmYiIHNob3dncmlkPSJmYWxzZSI+JiN4YTsJPC9zb2RpcG9kaTpuYW1lZHZpZXc+JiN4YTsmI3hhOzxwYXRoIGlkPSJwYXRoMTA0NTAyIiBpbmtzY2FwZTpjb25uZWN0b3ItY3VydmF0dXJlPSIwIiBzdHlsZT0iZmlsbDojMDA3MmM2IiBkPSJtIDAsOC4zNCB2IDQ0LjM0IGMgMCw0LjYxIDEwLjMxLDguMzQgMjMuMDIsOC4zNCBWIDguMzQgWiIvPiYjeGE7JiN4YTs8cGF0aCBpZD0icGF0aDEwNDUxMCIgaW5rc2NhcGU6Y29ubmVjdG9yLWN1cnZhdHVyZT0iMCIgc3R5bGU9ImZpbGw6IzAwNzJjNiIgZD0ibSAyMi43LDYxLjAyIGggMC4zMiBjIDEyLjcxLDAgMjMuMDEsLTMuNzMgMjMuMDEsLTguMzQgViA4LjM0IEggMjIuNyBaIi8+JiN4YTsmI3hhOzxwYXRoIGlkPSJwYXRoMTA0NTE4IiBpbmtzY2FwZTpjb25uZWN0b3ItY3VydmF0dXJlPSIwIiBzdHlsZT0iZmlsbDojZmZmZmZmO2ZpbGwtb3BhY2l0eTowLjE1IiBkPSJtIDIyLjcsNjEuMDIgaCAwLjMyIGMgMTIuNzEsMCAyMy4wMSwtMy43MyAyMy4wMSwtOC4zNCBWIDguMzQgSCAyMi43IFoiLz4mI3hhOyYjeGE7PHBhdGggaWQ9InBhdGgxMDQ1MjYiIGlua3NjYXBlOmNvbm5lY3Rvci1jdXJ2YXR1cmU9IjAiIHN0eWxlPSJmaWxsOiNmZmZmZmYiIGQ9Im0gNDYuMDMsOC4zMyBjIDAsNC42MSAtMTAuMyw4LjM0IC0yMy4wMSw4LjM0IEMgMTAuMzEsMTYuNjcgMCwxMi45NCAwLDguMzMgMCwzLjczIDEwLjMxLDAgMjMuMDIsMCAzNS43MywwIDQ2LjAzLDMuNzMgNDYuMDMsOC4zMyBaIi8+JiN4YTsmI3hhOzxwYXRoIGlkPSJwYXRoMTA0NTM0IiBpbmtzY2FwZTpjb25uZWN0b3ItY3VydmF0dXJlPSIwIiBzdHlsZT0iZmlsbDojN2ZiYTAwIiBkPSJtIDQxLjMyLDcuODUgYyAwLDMuMDQgLTguMTksNS41IC0xOC4zMSw1LjUgLTEwLjExLDAgLTE4LjMxLC0yLjQ2IC0xOC4zMSwtNS41IDAsLTMuMDQgOC4yLC01LjUgMTguMzEsLTUuNSAxMC4xMiwwIDE4LjMxLDIuNDYgMTguMzEsNS41IHoiLz4mI3hhOyYjeGE7PHBhdGggaWQ9InBhdGgxMDQ1NDIiIGlua3NjYXBlOmNvbm5lY3Rvci1jdXJ2YXR1cmU9IjAiIHN0eWxlPSJmaWxsOiNiOGQ0MzIiIGQ9Im0gMzcuNSwxMS4yMSBjIDIuMzksLTAuOTMgMy44MywtMi4wOSAzLjgzLC0zLjM2IDAsLTMuMDQgLTguMTksLTUuNSAtMTguMzEsLTUuNSAtMTAuMTEsMCAtMTguMzEsMi40NiAtMTguMzEsNS41IDAsMS4yNyAxLjQ0LDIuNDMgMy44NCwzLjM2IDMuMzUsLTEuMyA4LjU4LC0yLjE0IDE0LjQ3LC0yLjE0IDUuOSwwIDExLjEzLDAuODQgMTQuNDgsMi4xNCB6Ii8+JiN4YTsmI3hhOzxwYXRoIGlkPSJwYXRoMTA0NTUwIiBpbmtzY2FwZTpjb25uZWN0b3ItY3VydmF0dXJlPSIwIiBzdHlsZT0iZmlsbDojZmZmZmZmIiBkPSJtIDE1LjcxLDM5LjExIGMgMCwxLjM4IC0wLjUsMi40NSAtMS41LDMuMjEgLTEsMC43NSAtMi4zOCwxLjEzIC00LjE0LDEuMTMgLTEuNSwwIC0yLjc1LC0wLjI3IC0zLjc2LC0wLjgxIFYgMzkuNCBjIDEuMTYsMC45OCAyLjQ0LDEuNDggMy44NCwxLjQ4IDAuNjcsMCAxLjIsLTAuMTQgMS41NiwtMC40MSAwLjM3LC0wLjI3IDAuNTYsLTAuNjMgMC41NiwtMS4wNyAwLC0wLjQ0IC0wLjE4LC0wLjgyIC0wLjUzLC0xLjE1IEMgMTEuMzgsMzcuOTMgMTAuNjYsMzcuNTEgOS41NywzNyA3LjM2LDM1Ljk2IDYuMjUsMzQuNTQgNi4yNSwzMi43NCBjIDAsLTEuMyAwLjQ4LC0yLjM1IDEuNDUsLTMuMTMgMC45NiwtMC43OSAyLjI1LC0xLjE4IDMuODUsLTEuMTggMS40MiwwIDIuNTksMC4xOCAzLjUyLDAuNTUgdiAzLjAzIEMgMTQuMDksMzEuMzQgMTIuOTgsMzEgMTEuNzMsMzEgYyAtMC42MywwIC0xLjEyLDAuMTMgLTEuNDksMC40IC0wLjM2LDAuMjcgLTAuNTQsMC42MiAtMC41NCwxLjA3IDAsMC40NiAwLjE0LDAuODMgMC40NCwxLjEzIDAuMjksMC4yOSAwLjg5LDAuNjUgMS44LDEuMDkgMS4zNiwwLjY0IDIuMzMsMS4yOSAyLjkxLDEuOTUgMC41NywwLjY2IDAuODYsMS40OSAwLjg2LDIuNDcgeiIvPiYjeGE7JiN4YTs8cGF0aCBpZD0icGF0aDEwNDU1OCIgaW5rc2NhcGU6Y29ubmVjdG9yLWN1cnZhdHVyZT0iMCIgc3R5bGU9ImZpbGw6I2ZmZmZmZiIgZD0ibSAzMS4zMywzNS44NCBjIDAsMS43MSAtMC4zOSwzLjE5IC0xLjE2LDQuNDUgLTAuNzgsMS4yNSAtMS44NywyLjEzIC0zLjI4LDIuNjQgbCA0LjIxLDMuOSBoIC00LjI1IGwgLTMuMDEsLTMuMzcgYyAtMS4yOSwtMC4wNSAtMi40NiwtMC4zOSAtMy40OSwtMS4wMyAtMS4wNCwtMC42MyAtMS44NCwtMS41IC0yLjQsLTIuNjEgLTAuNTcsLTEuMSAtMC44NSwtMi4zMyAtMC44NSwtMy42OSAwLC0xLjUgMC4zMSwtMi44NSAwLjkyLC00LjAyIDAuNjEsLTEuMTggMS40NywtMi4wOSAyLjU3LC0yLjcyIDEuMTEsLTAuNjQgMi4zOCwtMC45NiAzLjgxLC0wLjk2IDEuMzQsMCAyLjU0LDAuMzEgMy41OSwwLjkzIDEuMDYsMC42MSAxLjg4LDEuNDggMi40NywyLjYyIDAuNTgsMS4xMyAwLjg3LDIuNDIgMC44NywzLjg2IHogbSAtMy40NCwwLjE4IGMgMCwtMS40NyAtMC4zMiwtMi42MyAtMC45NiwtMy40OSAtMC42NSwtMC44NSAtMS41MiwtMS4yOCAtMi42NCwtMS4yOCAtMS4xMywwIC0yLjA0LDAuNDMgLTIuNzIsMS4yOSAtMC42OCwwLjg1IC0xLjAzLDEuOTkgLTEuMDMsMy40MiAwLDEuNDIgMC4zNCwyLjU1IDEuMDEsMy40IDAuNjcsMC44NCAxLjU1LDEuMjcgMi42NiwxLjI3IDEuMTMsMCAyLjAyLC0wLjQxIDIuNjgsLTEuMjMgMC42NywtMC44MiAxLC0xLjk1IDEsLTMuMzggeiIvPiYjeGE7JiN4YTs8cGF0aCBpZD0icGF0aDEwNDU2NiIgaW5rc2NhcGU6Y29ubmVjdG9yLWN1cnZhdHVyZT0iMCIgc3R5bGU9ImZpbGw6I2ZmZmZmZiIgZD0iTSA0Mi4zOSw0My4yIEggMzMuNzQgViAyOC42NyBoIDMuMjcgdiAxMS44OCBoIDUuMzggeiIvPiYjeGE7PC9zdmc+;" vertex="1" parent="1">
          <mxGeometry x="530.58" y="270.5" width="46" height="61" as="geometry" />
        </mxCell>
        <mxCell id="7-IjwTOYMT7MXyIy--N_-11" style="rounded=0;orthogonalLoop=1;jettySize=auto;html=1;exitX=0;exitY=0.5;exitDx=0;exitDy=0;entryX=1;entryY=0.5;entryDx=0;entryDy=0;startArrow=classic;startFill=1;" edge="1" parent="1" source="7-IjwTOYMT7MXyIy--N_-5" target="7-IjwTOYMT7MXyIy--N_-3">
          <mxGeometry relative="1" as="geometry" />
        </mxCell>
        <mxCell id="7-IjwTOYMT7MXyIy--N_-5" value="Azure VM" style="shape=image;verticalLabelPosition=bottom;labelBackgroundColor=#ffffff;verticalAlign=top;aspect=fixed;imageAspect=0;image=data:image/svg+xml,PHN2ZyB4bWxuczpjYz0iaHR0cDovL2NyZWF0aXZlY29tbW9ucy5vcmcvbnMjIiB4bWxuczpkYz0iaHR0cDovL3B1cmwub3JnL2RjL2VsZW1lbnRzLzEuMS8iIHhtbG5zOmlua3NjYXBlPSJodHRwOi8vd3d3Lmlua3NjYXBlLm9yZy9uYW1lc3BhY2VzL2lua3NjYXBlIiB4bWxuczpyZGY9Imh0dHA6Ly93d3cudzMub3JnLzE5OTkvMDIvMjItcmRmLXN5bnRheC1ucyMiIHhtbG5zOnNvZGlwb2RpPSJodHRwOi8vc29kaXBvZGkuc291cmNlZm9yZ2UubmV0L0RURC9zb2RpcG9kaS0wLmR0ZCIgeG1sbnM6c3ZnPSJodHRwOi8vd3d3LnczLm9yZy8yMDAwL3N2ZyIgeG1sbnM9Imh0dHA6Ly93d3cudzMub3JnLzIwMDAvc3ZnIiB4bWxuczp4bGluaz0iaHR0cDovL3d3dy53My5vcmcvMTk5OS94bGluayIgdmVyc2lvbj0iMS4xIiBpZD0ic3ZnMTM4NzI0IiBpbmtzY2FwZTp2ZXJzaW9uPSIwLjkyLjMgKDI0MDU1NDYsIDIwMTgtMDMtMTEpIiBzb2RpcG9kaTpkb2NuYW1lPSJhenVyZV92aXJ0dWFsX21hY2hpbmUuc3ZnIiB4PSIwcHgiIHk9IjBweCIgdmlld0JveD0iMCAwIDgwLjMzIDU5LjA2IiBzdHlsZT0iZW5hYmxlLWJhY2tncm91bmQ6bmV3IDAgMCA4MC4zMyA1OS4wNjsiIHhtbDpzcGFjZT0icHJlc2VydmUiPiYjeGE7PHNvZGlwb2RpOm5hbWVkdmlldyBib3JkZXJjb2xvcj0iIzY2NjY2NiIgYm9yZGVyb3BhY2l0eT0iMSIgZml0LW1hcmdpbi1ib3R0b209IjAiIGZpdC1tYXJnaW4tbGVmdD0iMCIgZml0LW1hcmdpbi1yaWdodD0iMCIgZml0LW1hcmdpbi10b3A9IjAiIGdyaWR0b2xlcmFuY2U9IjEwIiBndWlkZXRvbGVyYW5jZT0iMTAiIGlkPSJuYW1lZHZpZXcxMzg3MjYiIGlua3NjYXBlOmN1cnJlbnQtbGF5ZXI9InN2ZzEzODcyNCIgaW5rc2NhcGU6Y3g9IjUzLjUzMTY3NyIgaW5rc2NhcGU6Y3k9IjM5LjM3MTEzMyIgaW5rc2NhcGU6cGFnZW9wYWNpdHk9IjAiIGlua3NjYXBlOnBhZ2VzaGFkb3c9IjIiIGlua3NjYXBlOndpbmRvdy1oZWlnaHQ9IjEwMTciIGlua3NjYXBlOndpbmRvdy1tYXhpbWl6ZWQ9IjEiIGlua3NjYXBlOndpbmRvdy13aWR0aD0iMTkyMCIgaW5rc2NhcGU6d2luZG93LXg9Ii04IiBpbmtzY2FwZTp3aW5kb3cteT0iLTgiIGlua3NjYXBlOnpvb209IjEwLjczNjY4NyIgb2JqZWN0dG9sZXJhbmNlPSIxMCIgcGFnZWNvbG9yPSIjZmZmZmZmIiBzaG93Z3JpZD0iZmFsc2UiPiYjeGE7CTwvc29kaXBvZGk6bmFtZWR2aWV3PiYjeGE7PGcgaWQ9ImcxMzg3MjIiIHRyYW5zZm9ybT0idHJhbnNsYXRlKC0wLjc2MjAwMjY1LC0wLjc0OTk5NDI3KSI+JiN4YTsJPHRpdGxlIGlkPSJ0aXRsZTEzODY5MiI+UGFnZS0xPC90aXRsZT4mI3hhOwk8ZyBpZD0iZ3JvdXA4NjIyLTEiIHRyYW5zZm9ybT0idHJhbnNsYXRlKDAuNzUwMTI0LC0wLjc1MDkwNikiPiYjeGE7CQk8dGl0bGUgaWQ9InRpdGxlMTM4Njk0Ij5BenVyZSBWaXJ0dWFsIE1hY2hpbmU8L3RpdGxlPiYjeGE7CQk8ZyBpZD0ic2hhcGU4NjIzLTIiIHRyYW5zZm9ybT0idHJhbnNsYXRlKDI2LjUwNDcsLTcuNDc3NSkiPiYjeGE7CQkJPHRpdGxlIGlkPSJ0aXRsZTEzODY5NiI+cGF0aDYyMDM8L3RpdGxlPiYjeGE7CQkJPHBhdGggaWQ9InBhdGgxMzg2OTgiIGlua3NjYXBlOmNvbm5lY3Rvci1jdXJ2YXR1cmU9IjAiIHN0eWxlPSJmaWxsOiNDNkUxRjY7IiBkPSJNNDMuMjIsNjAuNTZIMTQuNjVjLTIuNzMsMC00LjQ2LDAtNS43My0wLjEzICAgICBIOC42N2MtMS0wLjEtMS45OC0wLjM3LTIuOS0wLjhsLTAuMTUtMC4wNmMtNC45MS0yLjMtNy4wMy04LjE1LTQuNzMtMTMuMDZjMS4yNi0yLjY5LDMuNjctNC42Nyw2LjU1LTUuMzggICAgIGMxLjQzLTAuMzQsMi45My0wLjM2LDQuMzctMC4wNmMxLjQ5LTQuMjMsNS40Ny03LjA3LDkuOTUtNy4xMmMxLjYxLTAuMDEsMy4yLDAuMzYsNC42NSwxLjA4YzEuODYtMy4wNSw1LjE3LTQuOTEsOC43NC00LjkyICAgICBjNS4xNiwwLjA5LDkuNSwzLjg5LDEwLjI2LDljNS44NSwxLjM1LDkuNSw3LjIsOC4xNCwxMy4wNWMtMC45NCw0LjA4LTQuMTUsNy4yNS04LjIzLDguMTZDNDQuNjMsNjAuNDgsNDMuOTMsNjAuNTYsNDMuMjIsNjAuNTZ6ICAgICAiLz4mI3hhOwkJPC9nPiYjeGE7CQk8ZyBpZD0ic2hhcGU4NjI0LTQiIHRyYW5zZm9ybT0idHJhbnNsYXRlKDMwLjQ4NTQsLTguODEyNSkiPiYjeGE7CQkJPHRpdGxlIGlkPSJ0aXRsZTEzODcwMSI+cmVjdDYyMDU8L3RpdGxlPiYjeGE7CQkJPHJlY3QgaWQ9InJlY3QxMzg3MDMiIHg9IjAiIHk9IjEwLjMxIiBzdHlsZT0iZmlsbDojMzMzMzMzOyIgd2lkdGg9IjMwLjc1IiBoZWlnaHQ9IjUwLjI1Ii8+JiN4YTsJCTwvZz4mI3hhOwkJPGcgaWQ9InNoYXBlODYyNS02IiB0cmFuc2Zvcm09InRyYW5zbGF0ZSgzNS43MzU0LC00OS4zMTI1KSI+JiN4YTsJCQk8dGl0bGUgaWQ9InRpdGxlMTM4NzA2Ij5yZWN0NjIwNzwvdGl0bGU+JiN4YTsJCQk8cmVjdCBpZD0icmVjdDEzODcwOCIgeD0iMCIgeT0iNTYuMDYiIHN0eWxlPSJmaWxsOiM5MDkwOTA7IiB3aWR0aD0iMjAuMjUiIGhlaWdodD0iNC41Ii8+JiN4YTsJCTwvZz4mI3hhOwkJPGcgaWQ9InNoYXBlODYyNi04IiB0cmFuc2Zvcm09InRyYW5zbGF0ZSgzNS43MzU0LC0zOS41NjI1KSI+JiN4YTsJCQk8dGl0bGUgaWQ9InRpdGxlMTM4NzExIj5yZWN0NjIwOTwvdGl0bGU+JiN4YTsJCQk8cmVjdCBpZD0icmVjdDEzODcxMyIgeD0iMCIgeT0iNTYuMDYiIHN0eWxlPSJmaWxsOiM5MDkwOTA7IiB3aWR0aD0iMjAuMjUiIGhlaWdodD0iNC41Ii8+JiN4YTsJCTwvZz4mI3hhOwkJPGcgaWQ9InNoYXBlODYyNy0xMCI+JiN4YTsJCQk8dGl0bGUgaWQ9InRpdGxlMTM4NzE2Ij5wYXRoNjIxOTwvdGl0bGU+JiN4YTsJCQk8cGF0aCBpZD0icGF0aDEzODcxOCIgaW5rc2NhcGU6Y29ubmVjdG9yLWN1cnZhdHVyZT0iMCIgc3R5bGU9ImZpbGw6I0FBRDJGMjsiIGQ9Ik0xMC40OSw2MC4yOUMzLjI2LDU4LjY2LTEuMjksNTEuNDgsMC4zNCw0NC4yNSAgICAgYzEuMTMtNS4wMiw1LjAzLTguOTUsMTAuMDQtMTAuMTNjMC45NC02LjMsNi4zLTExLDEyLjY3LTExLjFjNC40LDAuMDEsOC40OSwyLjMsMTAuNzksNi4wNmMxLjc3LTAuODgsMy43Mi0xLjM0LDUuNjktMS4zNCAgICAgYzUuNTMsMC4wNSwxMC40NCwzLjU1LDEyLjI5LDguNzZjMS43OC0wLjM4LDMuNjMtMC4zNSw1LjQsMC4wN2M2LjUxLDEuNTksMTAuNDksOC4xNSw4LjksMTQuNjZjLTAuODcsMy41Ny0zLjMyLDYuNTUtNi42NSw4LjExICAgICBsLTAuMTksMC4wOGMtMS4xMywwLjUzLTIuMzUsMC44Ni0zLjU5LDAuOThoLTAuM2MtMS41OCwwLjEzLTMuNzEsMC4xNi03LjA4LDAuMTZIMTMuMDZDMTIuMiw2MC41NywxMS4zMyw2MC40OCwxMC40OSw2MC4yOXoiLz4mI3hhOwkJPC9nPiYjeGE7CTwvZz4mI3hhOzwvZz4mI3hhOzwvc3ZnPg==;" vertex="1" parent="1">
          <mxGeometry x="773.98" y="206" width="216.95" height="160" as="geometry" />
        </mxCell>
        <mxCell id="7-IjwTOYMT7MXyIy--N_-6" value="Web Service IIS" style="shape=image;verticalLabelPosition=bottom;labelBackgroundColor=#ffffff;verticalAlign=top;aspect=fixed;imageAspect=0;image=data:image/svg+xml,PHN2ZyB4bWxuczpjYz0iaHR0cDovL2NyZWF0aXZlY29tbW9ucy5vcmcvbnMjIiB4bWxuczpkYz0iaHR0cDovL3B1cmwub3JnL2RjL2VsZW1lbnRzLzEuMS8iIHhtbG5zOmlua3NjYXBlPSJodHRwOi8vd3d3Lmlua3NjYXBlLm9yZy9uYW1lc3BhY2VzL2lua3NjYXBlIiB4bWxuczpyZGY9Imh0dHA6Ly93d3cudzMub3JnLzE5OTkvMDIvMjItcmRmLXN5bnRheC1ucyMiIHhtbG5zOnNvZGlwb2RpPSJodHRwOi8vc29kaXBvZGkuc291cmNlZm9yZ2UubmV0L0RURC9zb2RpcG9kaS0wLmR0ZCIgeG1sbnM6c3ZnPSJodHRwOi8vd3d3LnczLm9yZy8yMDAwL3N2ZyIgeG1sbnM9Imh0dHA6Ly93d3cudzMub3JnLzIwMDAvc3ZnIiB4bWxuczp4bGluaz0iaHR0cDovL3d3dy53My5vcmcvMTk5OS94bGluayIgdmVyc2lvbj0iMS4xIiBpZD0ic3ZnMjY0OTQzIiBpbmtzY2FwZTp2ZXJzaW9uPSIwLjkyLjMgKDI0MDU1NDYsIDIwMTgtMDMtMTEpIiBzb2RpcG9kaTpkb2NuYW1lPSJ3ZWJfc2VydmljZV9paXMuc3ZnIiB4PSIwcHgiIHk9IjBweCIgdmlld0JveD0iMCAwIDQ4LjQxIDY5Ljc2IiBzdHlsZT0iZW5hYmxlLWJhY2tncm91bmQ6bmV3IDAgMCA0OC40MSA2OS43NjsiIHhtbDpzcGFjZT0icHJlc2VydmUiPiYjeGE7PHNvZGlwb2RpOm5hbWVkdmlldyBib3JkZXJjb2xvcj0iIzY2NjY2NiIgYm9yZGVyb3BhY2l0eT0iMSIgZml0LW1hcmdpbi1ib3R0b209IjAiIGZpdC1tYXJnaW4tbGVmdD0iMCIgZml0LW1hcmdpbi1yaWdodD0iMCIgZml0LW1hcmdpbi10b3A9IjAiIGdyaWR0b2xlcmFuY2U9IjEwIiBndWlkZXRvbGVyYW5jZT0iMTAiIGlkPSJuYW1lZHZpZXcyNjQ5NDUiIGlua3NjYXBlOmN1cnJlbnQtbGF5ZXI9InN2ZzI2NDk0MyIgaW5rc2NhcGU6Y3g9IjE0LjM4MzM5OCIgaW5rc2NhcGU6Y3k9IjQ2LjUwODM0NiIgaW5rc2NhcGU6cGFnZW9wYWNpdHk9IjAiIGlua3NjYXBlOnBhZ2VzaGFkb3c9IjIiIGlua3NjYXBlOndpbmRvdy1oZWlnaHQ9IjEwMTciIGlua3NjYXBlOndpbmRvdy1tYXhpbWl6ZWQ9IjEiIGlua3NjYXBlOndpbmRvdy13aWR0aD0iMTkyMCIgaW5rc2NhcGU6d2luZG93LXg9Ii04IiBpbmtzY2FwZTp3aW5kb3cteT0iLTgiIGlua3NjYXBlOnpvb209IjkuMTI1MzY4OSIgb2JqZWN0dG9sZXJhbmNlPSIxMCIgcGFnZWNvbG9yPSIjZmZmZmZmIiBzaG93Z3JpZD0iZmFsc2UiPiYjeGE7CTwvc29kaXBvZGk6bmFtZWR2aWV3PiYjeGE7PGcgaWQ9ImcyNjQ5NDEiIHRyYW5zZm9ybT0idHJhbnNsYXRlKC0wLjc1LC0wLjc1MDAzODc4KSI+JiN4YTsJPHRpdGxlIGlkPSJ0aXRsZTI2NDgxNSI+UGFnZS0xPC90aXRsZT4mI3hhOwk8ZyBpZD0iZ3JvdXAxMTE3MC0xIiB0cmFuc2Zvcm09InRyYW5zbGF0ZSgxLjUsLTEuNSkiPiYjeGE7CQk8dGl0bGUgaWQ9InRpdGxlMjY0ODE3Ij5XZWIgU2VydmljZS9JSVM8L3RpdGxlPiYjeGE7CQk8ZyBpZD0iZ3JvdXAxMTE3MS0yIiB0cmFuc2Zvcm09InRyYW5zbGF0ZSgwLC0wLjAwNzM5ODc2KSI+JiN4YTsJCQk8dGl0bGUgaWQ9InRpdGxlMjY0ODE5Ij5nMTU0MzMuMTE3MjE8L3RpdGxlPiYjeGE7CQkJPGcgaWQ9InNoYXBlMTExNzItMyI+JiN4YTsJCQkJPHRpdGxlIGlkPSJ0aXRsZTI2NDgyMSI+cmVjdDE1NDA1PC90aXRsZT4mI3hhOwkJCQkmI3hhOwkJCQkJPHJlY3QgaWQ9InJlY3QyNjQ4MjMiIHk9IjMuMDEiIHN0eWxlPSJmaWxsOiNGRkZGRkY7c3Ryb2tlOiM1NTZBOEE7c3Ryb2tlLXdpZHRoOjEuNTtzdHJva2UtbWl0ZXJsaW1pdDozOyIgd2lkdGg9IjM5Ljc1IiBoZWlnaHQ9IjY4LjI1Ii8+JiN4YTsJCQk8L2c+JiN4YTsJCQk8ZyBpZD0iZ3JvdXAxMTE3My01IiB0cmFuc2Zvcm09InRyYW5zbGF0ZSgxLjUsLTAuNzUpIj4mI3hhOwkJCQk8dGl0bGUgaWQ9InRpdGxlMjY0ODI2Ij5nMTU0MjU8L3RpdGxlPiYjeGE7CQkJCTxnIGlkPSJzaGFwZTExMTc0LTYiIHRyYW5zZm9ybT0idHJhbnNsYXRlKDE4KSI+JiN4YTsJCQkJCTx0aXRsZSBpZD0idGl0bGUyNjQ4MjgiPnJlY3QxNTQwNzwvdGl0bGU+JiN4YTsJCQkJCTxyZWN0IGlkPSJyZWN0MjY0ODMwIiB5PSI0LjUxIiBzdHlsZT0iZmlsbDojRTVFNUU1OyIgd2lkdGg9IjE5LjUiIGhlaWdodD0iNjYuNzUiLz4mI3hhOwkJCQk8L2c+JiN4YTsJCQkJPGcgaWQ9InNoYXBlMTExNzUtOCIgdHJhbnNmb3JtPSJ0cmFuc2xhdGUoMCwtNDgpIj4mI3hhOwkJCQkJPHRpdGxlIGlkPSJ0aXRsZTI2NDgzMyI+cmVjdDE1NDA5PC90aXRsZT4mI3hhOwkJCQkJPHJlY3QgaWQ9InJlY3QyNjQ4MzUiIHk9IjY5LjAxIiBzdHlsZT0iZmlsbDojMkJDN0Y0OyIgd2lkdGg9IjE4IiBoZWlnaHQ9IjIuMjUiLz4mI3hhOwkJCQk8L2c+JiN4YTsJCQkJPGcgaWQ9InNoYXBlMTExNzYtMTAiIHRyYW5zZm9ybT0idHJhbnNsYXRlKDAsLTU4LjUpIj4mI3hhOwkJCQkJPHRpdGxlIGlkPSJ0aXRsZTI2NDgzOCI+cG9seWdvbjE1NDExPC90aXRsZT4mI3hhOwkJCQkJPHJlY3QgaWQ9InJlY3QyNjQ4NDAiIHk9IjY5LjAxIiBzdHlsZT0iZmlsbDpub25lOyIgd2lkdGg9IjI3IiBoZWlnaHQ9IjIuMjUiLz4mI3hhOwkJCQk8L2c+JiN4YTsJCQkJPGcgaWQ9InNoYXBlMTExNzctMTIiIHRyYW5zZm9ybT0idHJhbnNsYXRlKDAsLTU4LjUpIj4mI3hhOwkJCQkJPHRpdGxlIGlkPSJ0aXRsZTI2NDg0MyI+cG9seWxpbmUxNTQxMzwvdGl0bGU+JiN4YTsJCQkJCTxyZWN0IGlkPSJyZWN0MjY0ODQ1IiB5PSI2OS4wMSIgc3R5bGU9ImZpbGw6bm9uZTsiIHdpZHRoPSIyNyIgaGVpZ2h0PSIyLjI1Ii8+JiN4YTsJCQkJPC9nPiYjeGE7CQkJCTxnIGlkPSJzaGFwZTExMTc4LTE0IiB0cmFuc2Zvcm09InRyYW5zbGF0ZSgwLC01My4yNSkiPiYjeGE7CQkJCQk8dGl0bGUgaWQ9InRpdGxlMjY0ODQ4Ij5yZWN0MTU0MTU8L3RpdGxlPiYjeGE7CQkJCQk8cmVjdCBpZD0icmVjdDI2NDg1MCIgeT0iNjkuMDEiIHN0eWxlPSJmaWxsOiMyQkM3RjQ7IiB3aWR0aD0iMTgiIGhlaWdodD0iMi4yNSIvPiYjeGE7CQkJCTwvZz4mI3hhOwkJCQk8ZyBpZD0ic2hhcGUxMTE3OS0xNiIgdHJhbnNmb3JtPSJ0cmFuc2xhdGUoMCwtNTguNSkiPiYjeGE7CQkJCQk8dGl0bGUgaWQ9InRpdGxlMjY0ODUzIj5yZWN0MTU0MTc8L3RpdGxlPiYjeGE7CQkJCQk8cmVjdCBpZD0icmVjdDI2NDg1NSIgeT0iNjkuMDEiIHN0eWxlPSJmaWxsOiMyQkM3RjQ7IiB3aWR0aD0iMTgiIGhlaWdodD0iMi4yNSIvPiYjeGE7CQkJCTwvZz4mI3hhOwkJCQk8ZyBpZD0ic2hhcGUxMTE4MC0xOCIgdHJhbnNmb3JtPSJ0cmFuc2xhdGUoMTgsLTQ4KSI+JiN4YTsJCQkJCTx0aXRsZSBpZD0idGl0bGUyNjQ4NTgiPnJlY3QxNTQxOTwvdGl0bGU+JiN4YTsJCQkJCTxyZWN0IGlkPSJyZWN0MjY0ODYwIiB5PSI2OS4wMSIgc3R5bGU9ImZpbGw6IzU1NkE4QTsiIHdpZHRoPSIxOS41IiBoZWlnaHQ9IjIuMjUiLz4mI3hhOwkJCQk8L2c+JiN4YTsJCQkJPGcgaWQ9InNoYXBlMTExODEtMjAiIHRyYW5zZm9ybT0idHJhbnNsYXRlKDE4LC01My4yNSkiPiYjeGE7CQkJCQk8dGl0bGUgaWQ9InRpdGxlMjY0ODYzIj5yZWN0MTU0MjE8L3RpdGxlPiYjeGE7CQkJCQk8cmVjdCBpZD0icmVjdDI2NDg2NSIgeT0iNjkuMDEiIHN0eWxlPSJmaWxsOiM1NTZBOEE7IiB3aWR0aD0iMTkuNSIgaGVpZ2h0PSIyLjI1Ii8+JiN4YTsJCQkJPC9nPiYjeGE7CQkJCTxnIGlkPSJzaGFwZTExMTgyLTIyIiB0cmFuc2Zvcm09InRyYW5zbGF0ZSgxOCwtNTguNSkiPiYjeGE7CQkJCQk8dGl0bGUgaWQ9InRpdGxlMjY0ODY4Ij5yZWN0MTU0MjM8L3RpdGxlPiYjeGE7CQkJCQk8cmVjdCBpZD0icmVjdDI2NDg3MCIgeT0iNjkuMDEiIHN0eWxlPSJmaWxsOiM1NTZBOEE7IiB3aWR0aD0iMTkuNSIgaGVpZ2h0PSIyLjI1Ii8+JiN4YTsJCQkJPC9nPiYjeGE7CQkJPC9nPiYjeGE7CQkJPGcgaWQ9InNoYXBlMTExODMtMjQiIHRyYW5zZm9ybT0idHJhbnNsYXRlKDAuNzUsLTU5LjI1KSI+JiN4YTsJCQkJPHRpdGxlIGlkPSJ0aXRsZTI2NDg3NCI+cmVjdDE1NDI3PC90aXRsZT4mI3hhOwkJCQk8cmVjdCBpZD0icmVjdDI2NDg3NiIgeT0iNjkuMDEiIHN0eWxlPSJmaWxsOiM1NTZBOEE7IiB3aWR0aD0iMi4yNSIgaGVpZ2h0PSIyLjI1Ii8+JiN4YTsJCQk8L2c+JiN4YTsJCQk8ZyBpZD0ic2hhcGUxMTE4NC0yNiIgdHJhbnNmb3JtPSJ0cmFuc2xhdGUoMC43NSwtNTQpIj4mI3hhOwkJCQk8dGl0bGUgaWQ9InRpdGxlMjY0ODc5Ij5yZWN0MTU0Mjk8L3RpdGxlPiYjeGE7CQkJCTxyZWN0IGlkPSJyZWN0MjY0ODgxIiB5PSI2OS4wMSIgc3R5bGU9ImZpbGw6IzU1NkE4QTsiIHdpZHRoPSIyLjI1IiBoZWlnaHQ9IjIuMjUiLz4mI3hhOwkJCTwvZz4mI3hhOwkJCTxnIGlkPSJzaGFwZTExMTg1LTI4IiB0cmFuc2Zvcm09InRyYW5zbGF0ZSgwLjc1LC00OC43NSkiPiYjeGE7CQkJCTx0aXRsZSBpZD0idGl0bGUyNjQ4ODQiPnJlY3QxNTQzMTwvdGl0bGU+JiN4YTsJCQkJPHJlY3QgaWQ9InJlY3QyNjQ4ODYiIHk9IjY5LjAxIiBzdHlsZT0iZmlsbDojNTU2QThBOyIgd2lkdGg9IjIuMjUiIGhlaWdodD0iMi4yNSIvPiYjeGE7CQkJPC9nPiYjeGE7CQk8L2c+JiN4YTsJCTxnIGlkPSJzaGFwZTExMTg2LTMwIiB0cmFuc2Zvcm09InRyYW5zbGF0ZSgxMy42OTgzKSI+JiN4YTsJCQk8dGl0bGUgaWQ9InRpdGxlMjY0ODkwIj5wb2x5Z29uMTU0MzUuMTE3Mzc8L3RpdGxlPiYjeGE7CQkJJiN4YTsJCQkJPHBhdGggaWQ9InBhdGgyNjQ4OTIiIGlua3NjYXBlOmNvbm5lY3Rvci1jdXJ2YXR1cmU9IjAiIHN0eWxlPSJmaWxsOiNGRkZGRkY7c3Ryb2tlOiNBQUU5RkI7c3Ryb2tlLXdpZHRoOjEuNTtzdHJva2UtbWl0ZXJsaW1pdDozOyIgZD0iICAgICBNOC4yNyw3MS4yNkwwLDU3LjAybDguMjctMTQuMjNoMTYuNTVsOC4yNywxNC4yM2wtOC4yNywxNC4yNEg4LjI3eiIvPiYjeGE7CQk8L2c+JiN4YTsJCTxnIGlkPSJncm91cDExMTg3LTMyIiB0cmFuc2Zvcm09InRyYW5zbGF0ZSgyMC42NTIsLTQuNjAzMTMpIj4mI3hhOwkJCTx0aXRsZSBpZD0idGl0bGUyNjQ4OTUiPkhUVFAuMTQ3MjQ8L3RpdGxlPiYjeGE7CQkJPGcgaWQ9InNoYXBlMTExODgtMzMiIHRyYW5zZm9ybT0idHJhbnNsYXRlKDIuODc4ODksLTIuOTYzMTgpIj4mI3hhOwkJCQk8dGl0bGUgaWQ9InRpdGxlMjY0ODk3Ij5wYXRoOTYxMDwvdGl0bGU+JiN4YTsJCQkJJiN4YTsJCQkJCTxwYXRoIGlkPSJwYXRoMjY0ODk5IiBpbmtzY2FwZTpjb25uZWN0b3ItY3VydmF0dXJlPSIwIiBzdHlsZT0iZmlsbDojRkZGRkZGO3N0cm9rZTojNTU2QThBO3N0cm9rZS13aWR0aDowLjc1O3N0cm9rZS1taXRlcmxpbWl0OjM7IiBkPSIgICAgICBNMTYuMSw2NC41OWMwLDUuMjEtNC4yMiw5LjQzLTkuNDMsOS40M2MtNS4yMSwwLTkuNDMtNC4yMi05LjQzLTkuNDNjMC01LjIxLDQuMjItOS40Myw5LjQzLTkuNDNjMCwwLDAsMCwwLDAgICAgICBDMTEuODgsNTUuMTcsMTYuMDksNTkuMzgsMTYuMSw2NC41OXoiLz4mI3hhOwkJCTwvZz4mI3hhOwkJCTxnIGlkPSJzaGFwZTExMTg5LTM1IiB0cmFuc2Zvcm09InRyYW5zbGF0ZSgwLjExNjM4OCwtMC4yMDA2NzYpIj4mI3hhOwkJCQk8dGl0bGUgaWQ9InRpdGxlMjY0OTAyIj5wYXRoOTYxMjwvdGl0bGU+JiN4YTsJCQkJJiN4YTsJCQkJCTxwYXRoIGlkPSJwYXRoMjY0OTA0IiBpbmtzY2FwZTpjb25uZWN0b3ItY3VydmF0dXJlPSIwIiBzdHlsZT0iZmlsbDojRDRFMkY1O3N0cm9rZTojNTU2QThBO3N0cm9rZS13aWR0aDowLjc1O3N0cm9rZS1taXRlcmxpbWl0OjM7IiBkPSIgICAgICBNMTguODYsNjEuODNjMC4xLDUuMjEtNC4wNCw5LjUxLTkuMjUsOS42MUM0LjQsNzEuNTQsMC4xLDY3LjQsMCw2Mi4yYzAtMC4xMiwwLTAuMjQsMC0wLjM3SDE4Ljg2eiIvPiYjeGE7CQkJPC9nPiYjeGE7CQkJPGcgaWQ9InNoYXBlMTExOTAtMzciIHRyYW5zZm9ybT0idHJhbnNsYXRlKDAuNzE4NDE2LC0yLjgyMTI4KSI+JiN4YTsJCQkJPHRpdGxlIGlkPSJ0aXRsZTI2NDkwNyI+cGF0aDk2MTQ8L3RpdGxlPiYjeGE7CQkJCSYjeGE7CQkJCQk8cGF0aCBpZD0icGF0aDI2NDkwOSIgaW5rc2NhcGU6Y29ubmVjdG9yLWN1cnZhdHVyZT0iMCIgc3R5bGU9ImZpbGw6IzU1NkE4QTtzdHJva2U6IzU1NkE4QTtzdHJva2Utd2lkdGg6MC43NTtzdHJva2UtbWl0ZXJsaW1pdDozOyIgZD0iICAgICAgTTguODMsNTUuNjJjNC44OCwwLDguODMsMy45NSw4LjgzLDguODNzLTMuOTUsOC44My04LjgzLDguODNDMy45NSw3My4yOCwwLDY5LjMzLDAsNjQuNDVDMCw1OS41NywzLjk1LDU1LjYyLDguODMsNTUuNjIgICAgICBDOC44Myw1NS42Miw4LjgzLDU1LjYyLDguODMsNTUuNjJ6IE04LjgzLDU0LjgxYy01LjMyLDAtOS42Myw0LjMxLTkuNjMsOS42M2MwLDUuMzIsNC4zMSw5LjYzLDkuNjMsOS42MyAgICAgIGM1LjMyLDAsOS42My00LjMxLDkuNjMtOS42MkMxOC40Niw1OS4xMywxNC4xNSw1NC44MSw4LjgzLDU0LjgxQzguODMsNTQuODEsOC44Myw1NC44MSw4LjgzLDU0LjgxeiIvPiYjeGE7CQkJPC9nPiYjeGE7CQkJPGcgaWQ9Imdyb3VwMTExOTEtMzkiPiYjeGE7CQkJCTx0aXRsZSBpZD0idGl0bGUyNjQ5MTIiPmc5NjIwPC90aXRsZT4mI3hhOwkJCQk8ZyBpZD0ic2hhcGUxMTE5Mi00MCIgdHJhbnNmb3JtPSJ0cmFuc2xhdGUoNS4xMzMyOSkiPiYjeGE7CQkJCQk8dGl0bGUgaWQ9InRpdGxlMjY0OTE0Ij5wYXRoOTYxNjwvdGl0bGU+JiN4YTsJCQkJCSYjeGE7CQkJCQkJPHBhdGggaWQ9InBhdGgyNjQ5MTYiIGlua3NjYXBlOmNvbm5lY3Rvci1jdXJ2YXR1cmU9IjAiIHN0eWxlPSJmaWxsOiM1NTZBOEE7c3Ryb2tlOiM1NTZBOEE7c3Ryb2tlLXdpZHRoOjAuNzU7c3Ryb2tlLW1pdGVybGltaXQ6MzsiIGQ9IiAgICAgICBNNC4yMSw1Mi45YzEuNjEsMCwzLjQyLDMuNzYsMy40Miw4Ljc4cy0xLjgxLDguNzctMy40Miw4Ljc3Yy0xLjYsMC0zLjQxLTMuNzUtMy40MS04Ljc3UzIuNjEsNTIuOSw0LjIxLDUyLjl6IE00LjIxLDUyLjEgICAgICAgQzEuODksNTIuMSwwLDU2LjM5LDAsNjEuNjhzMS44OSw5LjU4LDQuMjEsOS41OGMyLjMzLDAsNC4yMi00LjI5LDQuMjItOS41OFM2LjU0LDUyLjEsNC4yMSw1Mi4xeiIvPiYjeGE7CQkJCTwvZz4mI3hhOwkJCQk8ZyBpZD0ic2hhcGUxMTE5My00MiIgdHJhbnNmb3JtPSJ0cmFuc2xhdGUoMCwtOS42MzI0NSkiPiYjeGE7CQkJCQk8dGl0bGUgaWQ9InRpdGxlMjY0OTE5Ij5saW5lOTYxODwvdGl0bGU+JiN4YTsJCQkJCSYjeGE7CQkJCQkJPHBhdGggaWQ9InBhdGgyNjQ5MjEiIGlua3NjYXBlOmNvbm5lY3Rvci1jdXJ2YXR1cmU9IjAiIHN0eWxlPSJmaWxsOm5vbmU7c3Ryb2tlOiM1NTZBOEE7c3Ryb2tlLXdpZHRoOjEuNTtzdHJva2UtbWl0ZXJsaW1pdDozOyIgZD0iICAgICAgIE0wLDcxLjI2aDE4Ljc4Ii8+JiN4YTsJCQkJPC9nPiYjeGE7CQkJPC9nPiYjeGE7CQkJPGcgaWQ9InNoYXBlMTExOTQtNDUiIHRyYW5zZm9ybT0idHJhbnNsYXRlKDIuMzI3ODQsLTE0LjQ0ODcpIj4mI3hhOwkJCQk8dGl0bGUgaWQ9InRpdGxlMjY0OTI1Ij5wYXRoOTYyMjwvdGl0bGU+JiN4YTsJCQkJPHBhdGggaWQ9InBhdGgyNjQ5MjciIGlua3NjYXBlOmNvbm5lY3Rvci1jdXJ2YXR1cmU9IjAiIHN0eWxlPSJmaWxsOm5vbmU7IiBkPSJNMCw3MC4xN2MxLjc2LDAuNjksNC4zNSwxLjA5LDcuMjIsMS4wOSAgICAgIHM1LjQ2LTAuNCw3LjIyLTEuMDlIMHoiLz4mI3hhOwkJCQkmI3hhOwkJCQkJPHBhdGggaWQ9InBhdGgyNjQ5MjkiIGlua3NjYXBlOmNvbm5lY3Rvci1jdXJ2YXR1cmU9IjAiIHN0eWxlPSJmaWxsOm5vbmU7c3Ryb2tlOiM1NTZBOEE7c3Ryb2tlLXdpZHRoOjEuNTtzdHJva2UtbWl0ZXJsaW1pdDozOyIgZD0iICAgICAgTTAsNzAuMTdjMS43NiwwLjY5LDQuMzUsMS4wOSw3LjIyLDEuMDlzNS40Ni0wLjQsNy4yMi0xLjA5Ii8+JiN4YTsJCQk8L2c+JiN4YTsJCQk8ZyBpZD0ic2hhcGUxMTE5NS00OCIgdHJhbnNmb3JtPSJ0cmFuc2xhdGUoMi4zMjc4NCwtMy43Mjg1NikiPiYjeGE7CQkJCTx0aXRsZSBpZD0idGl0bGUyNjQ5MzIiPnBhdGg5NjI0PC90aXRsZT4mI3hhOwkJCQk8cGF0aCBpZD0icGF0aDI2NDkzNCIgaW5rc2NhcGU6Y29ubmVjdG9yLWN1cnZhdHVyZT0iMCIgc3R5bGU9ImZpbGw6bm9uZTsiIGQ9Ik0wLDcxLjI2YzEuNzYtMC42OSw0LjM1LTEuMDksNy4yMi0xLjA5ICAgICAgczUuNDYsMC40LDcuMjIsMS4wOUgweiIvPiYjeGE7CQkJCSYjeGE7CQkJCQk8cGF0aCBpZD0icGF0aDI2NDkzNiIgaW5rc2NhcGU6Y29ubmVjdG9yLWN1cnZhdHVyZT0iMCIgc3R5bGU9ImZpbGw6bm9uZTtzdHJva2U6IzU1NkE4QTtzdHJva2Utd2lkdGg6MS41O3N0cm9rZS1taXRlcmxpbWl0OjM7IiBkPSIgICAgICBNMCw3MS4yNmMxLjc2LTAuNjksNC4zNS0xLjA5LDcuMjItMS4wOXM1LjQ2LDAuNCw3LjIyLDEuMDkiLz4mI3hhOwkJCTwvZz4mI3hhOwkJPC9nPiYjeGE7CTwvZz4mI3hhOzwvZz4mI3hhOzwvc3ZnPg==;" vertex="1" parent="1">
          <mxGeometry x="803.98" y="266" width="48" height="70" as="geometry" />
        </mxCell>
        <mxCell id="7-IjwTOYMT7MXyIy--N_-9" value="Windows File Repository" style="shadow=0;dashed=0;html=1;strokeColor=none;fillColor=#4495D1;labelPosition=center;verticalLabelPosition=bottom;verticalAlign=top;align=center;outlineConnect=0;shape=mxgraph.veeam.windows_repository;" vertex="1" parent="1">
          <mxGeometry x="923.98" y="281.5" width="50" height="50" as="geometry" />
        </mxCell>
        <mxCell id="7-IjwTOYMT7MXyIy--N_-14" value="Optodev" style="verticalLabelPosition=bottom;sketch=0;aspect=fixed;html=1;verticalAlign=top;strokeColor=none;align=center;outlineConnect=0;shape=mxgraph.citrix.site;" vertex="1" parent="1">
          <mxGeometry x="64.07" y="536" width="116.53" height="110" as="geometry" />
        </mxCell>
        <mxCell id="7-IjwTOYMT7MXyIy--N_-18" value="Desktop" style="sketch=0;aspect=fixed;pointerEvents=1;shadow=0;dashed=0;html=1;strokeColor=none;labelPosition=center;verticalLabelPosition=bottom;verticalAlign=top;align=center;fillColor=#00188D;shape=mxgraph.mscae.enterprise.workstation_client" vertex="1" parent="1">
          <mxGeometry x="79" y="591.5" width="30" height="30" as="geometry" />
        </mxCell>
        <mxCell id="7-IjwTOYMT7MXyIy--N_-19" value="Laptop" style="sketch=0;aspect=fixed;pointerEvents=1;shadow=0;dashed=0;html=1;strokeColor=none;labelPosition=center;verticalLabelPosition=bottom;verticalAlign=top;align=center;fillColor=#00188D;shape=mxgraph.mscae.enterprise.client_application" vertex="1" parent="1">
          <mxGeometry x="129" y="600.5" width="32.81" height="21" as="geometry" />
        </mxCell>
        <mxCell id="7-IjwTOYMT7MXyIy--N_-21" style="edgeStyle=none;rounded=0;orthogonalLoop=1;jettySize=auto;html=1;exitX=0;exitY=0.5;exitDx=0;exitDy=0;exitPerimeter=0;entryX=0.333;entryY=0.587;entryDx=0;entryDy=0;entryPerimeter=0;startArrow=classic;startFill=1;" edge="1" parent="1" source="7-IjwTOYMT7MXyIy--N_-18" target="7-IjwTOYMT7MXyIy--N_-18">
          <mxGeometry relative="1" as="geometry" />
        </mxCell>
        <mxCell id="7-IjwTOYMT7MXyIy--N_-26" value="EMPI" style="verticalLabelPosition=bottom;sketch=0;aspect=fixed;html=1;verticalAlign=top;strokeColor=none;align=center;outlineConnect=0;shape=mxgraph.citrix.site;" vertex="1" parent="1">
          <mxGeometry x="209" y="536" width="116.53" height="110" as="geometry" />
        </mxCell>
        <mxCell id="7-IjwTOYMT7MXyIy--N_-27" value="Desktop" style="sketch=0;aspect=fixed;pointerEvents=1;shadow=0;dashed=0;html=1;strokeColor=none;labelPosition=center;verticalLabelPosition=bottom;verticalAlign=top;align=center;fillColor=#00188D;shape=mxgraph.mscae.enterprise.workstation_client" vertex="1" parent="1">
          <mxGeometry x="223.93" y="591.5" width="30" height="30" as="geometry" />
        </mxCell>
        <mxCell id="7-IjwTOYMT7MXyIy--N_-28" value="Laptop" style="sketch=0;aspect=fixed;pointerEvents=1;shadow=0;dashed=0;html=1;strokeColor=none;labelPosition=center;verticalLabelPosition=bottom;verticalAlign=top;align=center;fillColor=#00188D;shape=mxgraph.mscae.enterprise.client_application" vertex="1" parent="1">
          <mxGeometry x="273.93" y="600.5" width="32.81" height="21" as="geometry" />
        </mxCell>
        <mxCell id="7-IjwTOYMT7MXyIy--N_-29" style="edgeStyle=none;rounded=0;orthogonalLoop=1;jettySize=auto;html=1;exitX=0;exitY=0.5;exitDx=0;exitDy=0;exitPerimeter=0;entryX=0.333;entryY=0.587;entryDx=0;entryDy=0;entryPerimeter=0;startArrow=classic;startFill=1;" edge="1" parent="1" source="7-IjwTOYMT7MXyIy--N_-27" target="7-IjwTOYMT7MXyIy--N_-27">
          <mxGeometry relative="1" as="geometry" />
        </mxCell>
        <mxCell id="7-IjwTOYMT7MXyIy--N_-30" value="EOLT" style="verticalLabelPosition=bottom;sketch=0;aspect=fixed;html=1;verticalAlign=top;strokeColor=none;align=center;outlineConnect=0;shape=mxgraph.citrix.site;" vertex="1" parent="1">
          <mxGeometry x="369" y="536" width="116.53" height="110" as="geometry" />
        </mxCell>
        <mxCell id="7-IjwTOYMT7MXyIy--N_-31" value="Desktop" style="sketch=0;aspect=fixed;pointerEvents=1;shadow=0;dashed=0;html=1;strokeColor=none;labelPosition=center;verticalLabelPosition=bottom;verticalAlign=top;align=center;fillColor=#00188D;shape=mxgraph.mscae.enterprise.workstation_client" vertex="1" parent="1">
          <mxGeometry x="383.93" y="591.5" width="30" height="30" as="geometry" />
        </mxCell>
        <mxCell id="7-IjwTOYMT7MXyIy--N_-32" value="Laptop" style="sketch=0;aspect=fixed;pointerEvents=1;shadow=0;dashed=0;html=1;strokeColor=none;labelPosition=center;verticalLabelPosition=bottom;verticalAlign=top;align=center;fillColor=#00188D;shape=mxgraph.mscae.enterprise.client_application" vertex="1" parent="1">
          <mxGeometry x="433.93" y="600.5" width="32.81" height="21" as="geometry" />
        </mxCell>
        <mxCell id="7-IjwTOYMT7MXyIy--N_-33" style="edgeStyle=none;rounded=0;orthogonalLoop=1;jettySize=auto;html=1;exitX=0;exitY=0.5;exitDx=0;exitDy=0;exitPerimeter=0;entryX=0.333;entryY=0.587;entryDx=0;entryDy=0;entryPerimeter=0;startArrow=classic;startFill=1;" edge="1" parent="1" source="7-IjwTOYMT7MXyIy--N_-31" target="7-IjwTOYMT7MXyIy--N_-31">
          <mxGeometry relative="1" as="geometry" />
        </mxCell>
        <mxCell id="7-IjwTOYMT7MXyIy--N_-34" value="EMTC" style="verticalLabelPosition=bottom;sketch=0;aspect=fixed;html=1;verticalAlign=top;strokeColor=none;align=center;outlineConnect=0;shape=mxgraph.citrix.site;" vertex="1" parent="1">
          <mxGeometry x="517" y="536" width="116.53" height="110" as="geometry" />
        </mxCell>
        <mxCell id="7-IjwTOYMT7MXyIy--N_-35" value="Desktop" style="sketch=0;aspect=fixed;pointerEvents=1;shadow=0;dashed=0;html=1;strokeColor=none;labelPosition=center;verticalLabelPosition=bottom;verticalAlign=top;align=center;fillColor=#00188D;shape=mxgraph.mscae.enterprise.workstation_client" vertex="1" parent="1">
          <mxGeometry x="531.9300000000001" y="591.5" width="30" height="30" as="geometry" />
        </mxCell>
        <mxCell id="7-IjwTOYMT7MXyIy--N_-36" value="Laptop" style="sketch=0;aspect=fixed;pointerEvents=1;shadow=0;dashed=0;html=1;strokeColor=none;labelPosition=center;verticalLabelPosition=bottom;verticalAlign=top;align=center;fillColor=#00188D;shape=mxgraph.mscae.enterprise.client_application" vertex="1" parent="1">
          <mxGeometry x="581.9300000000001" y="600.5" width="32.81" height="21" as="geometry" />
        </mxCell>
        <mxCell id="7-IjwTOYMT7MXyIy--N_-37" style="edgeStyle=none;rounded=0;orthogonalLoop=1;jettySize=auto;html=1;exitX=0;exitY=0.5;exitDx=0;exitDy=0;exitPerimeter=0;entryX=0.333;entryY=0.587;entryDx=0;entryDy=0;entryPerimeter=0;startArrow=classic;startFill=1;" edge="1" parent="1" source="7-IjwTOYMT7MXyIy--N_-35" target="7-IjwTOYMT7MXyIy--N_-35">
          <mxGeometry relative="1" as="geometry" />
        </mxCell>
        <mxCell id="7-IjwTOYMT7MXyIy--N_-38" value="TOTL" style="verticalLabelPosition=bottom;sketch=0;aspect=fixed;html=1;verticalAlign=top;strokeColor=none;align=center;outlineConnect=0;shape=mxgraph.citrix.site;" vertex="1" parent="1">
          <mxGeometry x="679" y="536" width="116.53" height="110" as="geometry" />
        </mxCell>
        <mxCell id="7-IjwTOYMT7MXyIy--N_-39" value="Desktop" style="sketch=0;aspect=fixed;pointerEvents=1;shadow=0;dashed=0;html=1;strokeColor=none;labelPosition=center;verticalLabelPosition=bottom;verticalAlign=top;align=center;fillColor=#00188D;shape=mxgraph.mscae.enterprise.workstation_client" vertex="1" parent="1">
          <mxGeometry x="693.93" y="591.5" width="30" height="30" as="geometry" />
        </mxCell>
        <mxCell id="7-IjwTOYMT7MXyIy--N_-40" value="Laptop" style="sketch=0;aspect=fixed;pointerEvents=1;shadow=0;dashed=0;html=1;strokeColor=none;labelPosition=center;verticalLabelPosition=bottom;verticalAlign=top;align=center;fillColor=#00188D;shape=mxgraph.mscae.enterprise.client_application" vertex="1" parent="1">
          <mxGeometry x="743.93" y="600.5" width="32.81" height="21" as="geometry" />
        </mxCell>
        <mxCell id="7-IjwTOYMT7MXyIy--N_-41" style="edgeStyle=none;rounded=0;orthogonalLoop=1;jettySize=auto;html=1;exitX=0;exitY=0.5;exitDx=0;exitDy=0;exitPerimeter=0;entryX=0.333;entryY=0.587;entryDx=0;entryDy=0;entryPerimeter=0;startArrow=classic;startFill=1;" edge="1" parent="1" source="7-IjwTOYMT7MXyIy--N_-39" target="7-IjwTOYMT7MXyIy--N_-39">
          <mxGeometry relative="1" as="geometry" />
        </mxCell>
        <mxCell id="7-IjwTOYMT7MXyIy--N_-46" value="IMST&lt;br&gt;" style="verticalLabelPosition=bottom;sketch=0;aspect=fixed;html=1;verticalAlign=top;strokeColor=none;align=center;outlineConnect=0;shape=mxgraph.citrix.site;" vertex="1" parent="1">
          <mxGeometry x="989" y="536" width="116.53" height="110" as="geometry" />
        </mxCell>
        <mxCell id="7-IjwTOYMT7MXyIy--N_-47" value="Desktop" style="sketch=0;aspect=fixed;pointerEvents=1;shadow=0;dashed=0;html=1;strokeColor=none;labelPosition=center;verticalLabelPosition=bottom;verticalAlign=top;align=center;fillColor=#00188D;shape=mxgraph.mscae.enterprise.workstation_client" vertex="1" parent="1">
          <mxGeometry x="1003.9299999999998" y="591.5" width="30" height="30" as="geometry" />
        </mxCell>
        <mxCell id="7-IjwTOYMT7MXyIy--N_-48" value="Laptop" style="sketch=0;aspect=fixed;pointerEvents=1;shadow=0;dashed=0;html=1;strokeColor=none;labelPosition=center;verticalLabelPosition=bottom;verticalAlign=top;align=center;fillColor=#00188D;shape=mxgraph.mscae.enterprise.client_application" vertex="1" parent="1">
          <mxGeometry x="1053.9299999999998" y="600.5" width="32.81" height="21" as="geometry" />
        </mxCell>
        <mxCell id="7-IjwTOYMT7MXyIy--N_-49" style="edgeStyle=none;rounded=0;orthogonalLoop=1;jettySize=auto;html=1;exitX=0;exitY=0.5;exitDx=0;exitDy=0;exitPerimeter=0;entryX=0.333;entryY=0.587;entryDx=0;entryDy=0;entryPerimeter=0;startArrow=classic;startFill=1;" edge="1" parent="1" source="7-IjwTOYMT7MXyIy--N_-47" target="7-IjwTOYMT7MXyIy--N_-47">
          <mxGeometry relative="1" as="geometry" />
        </mxCell>
        <mxCell id="7-IjwTOYMT7MXyIy--N_-50" value="ELTL" style="verticalLabelPosition=bottom;sketch=0;aspect=fixed;html=1;verticalAlign=top;strokeColor=none;align=center;outlineConnect=0;shape=mxgraph.citrix.site;" vertex="1" parent="1">
          <mxGeometry x="839" y="536" width="116.53" height="110" as="geometry" />
        </mxCell>
        <mxCell id="7-IjwTOYMT7MXyIy--N_-51" value="Desktop" style="sketch=0;aspect=fixed;pointerEvents=1;shadow=0;dashed=0;html=1;strokeColor=none;labelPosition=center;verticalLabelPosition=bottom;verticalAlign=top;align=center;fillColor=#00188D;shape=mxgraph.mscae.enterprise.workstation_client" vertex="1" parent="1">
          <mxGeometry x="853.93" y="591.5" width="30" height="30" as="geometry" />
        </mxCell>
        <mxCell id="7-IjwTOYMT7MXyIy--N_-52" value="Laptop" style="sketch=0;aspect=fixed;pointerEvents=1;shadow=0;dashed=0;html=1;strokeColor=none;labelPosition=center;verticalLabelPosition=bottom;verticalAlign=top;align=center;fillColor=#00188D;shape=mxgraph.mscae.enterprise.client_application" vertex="1" parent="1">
          <mxGeometry x="903.93" y="600.5" width="32.81" height="21" as="geometry" />
        </mxCell>
        <mxCell id="7-IjwTOYMT7MXyIy--N_-53" style="edgeStyle=none;rounded=0;orthogonalLoop=1;jettySize=auto;html=1;exitX=0;exitY=0.5;exitDx=0;exitDy=0;exitPerimeter=0;entryX=0.333;entryY=0.587;entryDx=0;entryDy=0;entryPerimeter=0;startArrow=classic;startFill=1;" edge="1" parent="1" source="7-IjwTOYMT7MXyIy--N_-51" target="7-IjwTOYMT7MXyIy--N_-51">
          <mxGeometry relative="1" as="geometry" />
        </mxCell>
        <mxCell id="7-IjwTOYMT7MXyIy--N_-57" style="rounded=0;orthogonalLoop=1;jettySize=auto;html=1;entryX=1;entryY=0.5;entryDx=0;entryDy=0;startArrow=none;startFill=0;endArrow=none;endFill=0;" edge="1" parent="1">
          <mxGeometry relative="1" as="geometry">
            <mxPoint x="1019" y="476" as="sourcePoint" />
            <mxPoint x="90.93" y="476" as="targetPoint" />
          </mxGeometry>
        </mxCell>
        <mxCell id="7-IjwTOYMT7MXyIy--N_-58" style="rounded=0;orthogonalLoop=1;jettySize=auto;html=1;entryX=1;entryY=0.5;entryDx=0;entryDy=0;startArrow=classic;startFill=1;endArrow=none;endFill=0;" edge="1" parent="1">
          <mxGeometry relative="1" as="geometry">
            <mxPoint x="93" y="526" as="sourcePoint" />
            <mxPoint x="92.5" y="476" as="targetPoint" />
          </mxGeometry>
        </mxCell>
        <mxCell id="7-IjwTOYMT7MXyIy--N_-59" style="rounded=0;orthogonalLoop=1;jettySize=auto;html=1;entryX=1;entryY=0.5;entryDx=0;entryDy=0;startArrow=classic;startFill=1;endArrow=none;endFill=0;" edge="1" parent="1">
          <mxGeometry relative="1" as="geometry">
            <mxPoint x="238.93" y="526" as="sourcePoint" />
            <mxPoint x="238.43" y="476" as="targetPoint" />
          </mxGeometry>
        </mxCell>
        <mxCell id="7-IjwTOYMT7MXyIy--N_-60" style="rounded=0;orthogonalLoop=1;jettySize=auto;html=1;entryX=1;entryY=0.5;entryDx=0;entryDy=0;startArrow=classic;startFill=1;endArrow=none;endFill=0;" edge="1" parent="1">
          <mxGeometry relative="1" as="geometry">
            <mxPoint x="414.43" y="526" as="sourcePoint" />
            <mxPoint x="413.93" y="476" as="targetPoint" />
          </mxGeometry>
        </mxCell>
        <mxCell id="7-IjwTOYMT7MXyIy--N_-61" style="rounded=0;orthogonalLoop=1;jettySize=auto;html=1;entryX=1;entryY=0.5;entryDx=0;entryDy=0;startArrow=classic;startFill=1;endArrow=none;endFill=0;" edge="1" parent="1">
          <mxGeometry relative="1" as="geometry">
            <mxPoint x="561.4300000000001" y="526" as="sourcePoint" />
            <mxPoint x="560.9300000000001" y="476" as="targetPoint" />
          </mxGeometry>
        </mxCell>
        <mxCell id="7-IjwTOYMT7MXyIy--N_-62" style="rounded=0;orthogonalLoop=1;jettySize=auto;html=1;entryX=1;entryY=0.5;entryDx=0;entryDy=0;startArrow=classic;startFill=1;endArrow=none;endFill=0;" edge="1" parent="1">
          <mxGeometry relative="1" as="geometry">
            <mxPoint x="719.4300000000001" y="526" as="sourcePoint" />
            <mxPoint x="718.9300000000001" y="476" as="targetPoint" />
          </mxGeometry>
        </mxCell>
        <mxCell id="7-IjwTOYMT7MXyIy--N_-63" style="rounded=0;orthogonalLoop=1;jettySize=auto;html=1;entryX=1;entryY=0.5;entryDx=0;entryDy=0;startArrow=classic;startFill=1;endArrow=none;endFill=0;" edge="1" parent="1">
          <mxGeometry relative="1" as="geometry">
            <mxPoint x="880.4300000000001" y="526" as="sourcePoint" />
            <mxPoint x="879.9300000000001" y="476" as="targetPoint" />
          </mxGeometry>
        </mxCell>
        <mxCell id="7-IjwTOYMT7MXyIy--N_-64" style="rounded=0;orthogonalLoop=1;jettySize=auto;html=1;entryX=1;entryY=0.5;entryDx=0;entryDy=0;startArrow=classic;startFill=1;endArrow=none;endFill=0;" edge="1" parent="1">
          <mxGeometry relative="1" as="geometry">
            <mxPoint x="1018.9300000000001" y="526" as="sourcePoint" />
            <mxPoint x="1018.4300000000001" y="476" as="targetPoint" />
          </mxGeometry>
        </mxCell>
        <mxCell id="7-IjwTOYMT7MXyIy--N_-65" style="rounded=0;orthogonalLoop=1;jettySize=auto;html=1;entryX=0.5;entryY=1;entryDx=0;entryDy=0;startArrow=none;startFill=0;endArrow=classic;endFill=1;" edge="1" parent="1">
          <mxGeometry relative="1" as="geometry">
            <mxPoint x="880" y="476" as="sourcePoint" />
            <mxPoint x="880.4550000000002" y="366" as="targetPoint" />
          </mxGeometry>
        </mxCell>
        <mxCell id="7-IjwTOYMT7MXyIy--N_-66" value="QilkSense Server" style="shape=image;verticalLabelPosition=bottom;labelBackgroundColor=#ffffff;verticalAlign=top;aspect=fixed;imageAspect=0;image=data:image/svg+xml,PHN2ZyB4bWxuczpjYz0iaHR0cDovL2NyZWF0aXZlY29tbW9ucy5vcmcvbnMjIiB4bWxuczpkYz0iaHR0cDovL3B1cmwub3JnL2RjL2VsZW1lbnRzLzEuMS8iIHhtbG5zOmlua3NjYXBlPSJodHRwOi8vd3d3Lmlua3NjYXBlLm9yZy9uYW1lc3BhY2VzL2lua3NjYXBlIiB4bWxuczpyZGY9Imh0dHA6Ly93d3cudzMub3JnLzE5OTkvMDIvMjItcmRmLXN5bnRheC1ucyMiIHhtbG5zOnNvZGlwb2RpPSJodHRwOi8vc29kaXBvZGkuc291cmNlZm9yZ2UubmV0L0RURC9zb2RpcG9kaS0wLmR0ZCIgeG1sbnM6c3ZnPSJodHRwOi8vd3d3LnczLm9yZy8yMDAwL3N2ZyIgeG1sbnM9Imh0dHA6Ly93d3cudzMub3JnLzIwMDAvc3ZnIiB4bWxuczp4bGluaz0iaHR0cDovL3d3dy53My5vcmcvMTk5OS94bGluayIgdmVyc2lvbj0iMS4xIiBpZD0ic3ZnMTM4NzI0IiBpbmtzY2FwZTp2ZXJzaW9uPSIwLjkyLjMgKDI0MDU1NDYsIDIwMTgtMDMtMTEpIiBzb2RpcG9kaTpkb2NuYW1lPSJhenVyZV92aXJ0dWFsX21hY2hpbmUuc3ZnIiB4PSIwcHgiIHk9IjBweCIgdmlld0JveD0iMCAwIDgwLjMzIDU5LjA2IiBzdHlsZT0iZW5hYmxlLWJhY2tncm91bmQ6bmV3IDAgMCA4MC4zMyA1OS4wNjsiIHhtbDpzcGFjZT0icHJlc2VydmUiPiYjeGE7PHNvZGlwb2RpOm5hbWVkdmlldyBib3JkZXJjb2xvcj0iIzY2NjY2NiIgYm9yZGVyb3BhY2l0eT0iMSIgZml0LW1hcmdpbi1ib3R0b209IjAiIGZpdC1tYXJnaW4tbGVmdD0iMCIgZml0LW1hcmdpbi1yaWdodD0iMCIgZml0LW1hcmdpbi10b3A9IjAiIGdyaWR0b2xlcmFuY2U9IjEwIiBndWlkZXRvbGVyYW5jZT0iMTAiIGlkPSJuYW1lZHZpZXcxMzg3MjYiIGlua3NjYXBlOmN1cnJlbnQtbGF5ZXI9InN2ZzEzODcyNCIgaW5rc2NhcGU6Y3g9IjUzLjUzMTY3NyIgaW5rc2NhcGU6Y3k9IjM5LjM3MTEzMyIgaW5rc2NhcGU6cGFnZW9wYWNpdHk9IjAiIGlua3NjYXBlOnBhZ2VzaGFkb3c9IjIiIGlua3NjYXBlOndpbmRvdy1oZWlnaHQ9IjEwMTciIGlua3NjYXBlOndpbmRvdy1tYXhpbWl6ZWQ9IjEiIGlua3NjYXBlOndpbmRvdy13aWR0aD0iMTkyMCIgaW5rc2NhcGU6d2luZG93LXg9Ii04IiBpbmtzY2FwZTp3aW5kb3cteT0iLTgiIGlua3NjYXBlOnpvb209IjEwLjczNjY4NyIgb2JqZWN0dG9sZXJhbmNlPSIxMCIgcGFnZWNvbG9yPSIjZmZmZmZmIiBzaG93Z3JpZD0iZmFsc2UiPiYjeGE7CTwvc29kaXBvZGk6bmFtZWR2aWV3PiYjeGE7PGcgaWQ9ImcxMzg3MjIiIHRyYW5zZm9ybT0idHJhbnNsYXRlKC0wLjc2MjAwMjY1LC0wLjc0OTk5NDI3KSI+JiN4YTsJPHRpdGxlIGlkPSJ0aXRsZTEzODY5MiI+UGFnZS0xPC90aXRsZT4mI3hhOwk8ZyBpZD0iZ3JvdXA4NjIyLTEiIHRyYW5zZm9ybT0idHJhbnNsYXRlKDAuNzUwMTI0LC0wLjc1MDkwNikiPiYjeGE7CQk8dGl0bGUgaWQ9InRpdGxlMTM4Njk0Ij5BenVyZSBWaXJ0dWFsIE1hY2hpbmU8L3RpdGxlPiYjeGE7CQk8ZyBpZD0ic2hhcGU4NjIzLTIiIHRyYW5zZm9ybT0idHJhbnNsYXRlKDI2LjUwNDcsLTcuNDc3NSkiPiYjeGE7CQkJPHRpdGxlIGlkPSJ0aXRsZTEzODY5NiI+cGF0aDYyMDM8L3RpdGxlPiYjeGE7CQkJPHBhdGggaWQ9InBhdGgxMzg2OTgiIGlua3NjYXBlOmNvbm5lY3Rvci1jdXJ2YXR1cmU9IjAiIHN0eWxlPSJmaWxsOiNDNkUxRjY7IiBkPSJNNDMuMjIsNjAuNTZIMTQuNjVjLTIuNzMsMC00LjQ2LDAtNS43My0wLjEzICAgICBIOC42N2MtMS0wLjEtMS45OC0wLjM3LTIuOS0wLjhsLTAuMTUtMC4wNmMtNC45MS0yLjMtNy4wMy04LjE1LTQuNzMtMTMuMDZjMS4yNi0yLjY5LDMuNjctNC42Nyw2LjU1LTUuMzggICAgIGMxLjQzLTAuMzQsMi45My0wLjM2LDQuMzctMC4wNmMxLjQ5LTQuMjMsNS40Ny03LjA3LDkuOTUtNy4xMmMxLjYxLTAuMDEsMy4yLDAuMzYsNC42NSwxLjA4YzEuODYtMy4wNSw1LjE3LTQuOTEsOC43NC00LjkyICAgICBjNS4xNiwwLjA5LDkuNSwzLjg5LDEwLjI2LDljNS44NSwxLjM1LDkuNSw3LjIsOC4xNCwxMy4wNWMtMC45NCw0LjA4LTQuMTUsNy4yNS04LjIzLDguMTZDNDQuNjMsNjAuNDgsNDMuOTMsNjAuNTYsNDMuMjIsNjAuNTZ6ICAgICAiLz4mI3hhOwkJPC9nPiYjeGE7CQk8ZyBpZD0ic2hhcGU4NjI0LTQiIHRyYW5zZm9ybT0idHJhbnNsYXRlKDMwLjQ4NTQsLTguODEyNSkiPiYjeGE7CQkJPHRpdGxlIGlkPSJ0aXRsZTEzODcwMSI+cmVjdDYyMDU8L3RpdGxlPiYjeGE7CQkJPHJlY3QgaWQ9InJlY3QxMzg3MDMiIHg9IjAiIHk9IjEwLjMxIiBzdHlsZT0iZmlsbDojMzMzMzMzOyIgd2lkdGg9IjMwLjc1IiBoZWlnaHQ9IjUwLjI1Ii8+JiN4YTsJCTwvZz4mI3hhOwkJPGcgaWQ9InNoYXBlODYyNS02IiB0cmFuc2Zvcm09InRyYW5zbGF0ZSgzNS43MzU0LC00OS4zMTI1KSI+JiN4YTsJCQk8dGl0bGUgaWQ9InRpdGxlMTM4NzA2Ij5yZWN0NjIwNzwvdGl0bGU+JiN4YTsJCQk8cmVjdCBpZD0icmVjdDEzODcwOCIgeD0iMCIgeT0iNTYuMDYiIHN0eWxlPSJmaWxsOiM5MDkwOTA7IiB3aWR0aD0iMjAuMjUiIGhlaWdodD0iNC41Ii8+JiN4YTsJCTwvZz4mI3hhOwkJPGcgaWQ9InNoYXBlODYyNi04IiB0cmFuc2Zvcm09InRyYW5zbGF0ZSgzNS43MzU0LC0zOS41NjI1KSI+JiN4YTsJCQk8dGl0bGUgaWQ9InRpdGxlMTM4NzExIj5yZWN0NjIwOTwvdGl0bGU+JiN4YTsJCQk8cmVjdCBpZD0icmVjdDEzODcxMyIgeD0iMCIgeT0iNTYuMDYiIHN0eWxlPSJmaWxsOiM5MDkwOTA7IiB3aWR0aD0iMjAuMjUiIGhlaWdodD0iNC41Ii8+JiN4YTsJCTwvZz4mI3hhOwkJPGcgaWQ9InNoYXBlODYyNy0xMCI+JiN4YTsJCQk8dGl0bGUgaWQ9InRpdGxlMTM4NzE2Ij5wYXRoNjIxOTwvdGl0bGU+JiN4YTsJCQk8cGF0aCBpZD0icGF0aDEzODcxOCIgaW5rc2NhcGU6Y29ubmVjdG9yLWN1cnZhdHVyZT0iMCIgc3R5bGU9ImZpbGw6I0FBRDJGMjsiIGQ9Ik0xMC40OSw2MC4yOUMzLjI2LDU4LjY2LTEuMjksNTEuNDgsMC4zNCw0NC4yNSAgICAgYzEuMTMtNS4wMiw1LjAzLTguOTUsMTAuMDQtMTAuMTNjMC45NC02LjMsNi4zLTExLDEyLjY3LTExLjFjNC40LDAuMDEsOC40OSwyLjMsMTAuNzksNi4wNmMxLjc3LTAuODgsMy43Mi0xLjM0LDUuNjktMS4zNCAgICAgYzUuNTMsMC4wNSwxMC40NCwzLjU1LDEyLjI5LDguNzZjMS43OC0wLjM4LDMuNjMtMC4zNSw1LjQsMC4wN2M2LjUxLDEuNTksMTAuNDksOC4xNSw4LjksMTQuNjZjLTAuODcsMy41Ny0zLjMyLDYuNTUtNi42NSw4LjExICAgICBsLTAuMTksMC4wOGMtMS4xMywwLjUzLTIuMzUsMC44Ni0zLjU5LDAuOThoLTAuM2MtMS41OCwwLjEzLTMuNzEsMC4xNi03LjA4LDAuMTZIMTMuMDZDMTIuMiw2MC41NywxMS4zMyw2MC40OCwxMC40OSw2MC4yOXoiLz4mI3hhOwkJPC9nPiYjeGE7CTwvZz4mI3hhOzwvZz4mI3hhOzwvc3ZnPg==;" vertex="1" parent="1">
          <mxGeometry x="129.00000000000006" y="206" width="216.95" height="160" as="geometry" />
        </mxCell>
        <mxCell id="7-IjwTOYMT7MXyIy--N_-69" style="rounded=0;orthogonalLoop=1;jettySize=auto;html=1;exitX=0;exitY=0.5;exitDx=0;exitDy=0;entryX=1;entryY=0.5;entryDx=0;entryDy=0;startArrow=none;startFill=0;endArrow=classic;endFill=1;" edge="1" parent="1" source="7-IjwTOYMT7MXyIy--N_-3" target="7-IjwTOYMT7MXyIy--N_-66">
          <mxGeometry relative="1" as="geometry">
            <mxPoint x="455.27" y="285.58000000000004" as="sourcePoint" />
            <mxPoint x="399.27" y="285.58000000000004" as="targetPoint" />
          </mxGeometry>
        </mxCell>
        <mxCell id="7-IjwTOYMT7MXyIy--N_-70" value="Qilk" style="shadow=0;dashed=0;html=1;strokeColor=none;fillColor=#4495D1;labelPosition=center;verticalLabelPosition=bottom;verticalAlign=top;align=center;outlineConnect=0;shape=mxgraph.veeam.2d.report;" vertex="1" parent="1">
          <mxGeometry x="180.60000000000002" y="285.2" width="36.8" height="50.8" as="geometry" />
        </mxCell>
        <mxCell id="7-IjwTOYMT7MXyIy--N_-71" style="rounded=0;orthogonalLoop=1;jettySize=auto;html=1;entryX=0.5;entryY=1;entryDx=0;entryDy=0;startArrow=none;startFill=0;endArrow=classic;endFill=1;" edge="1" parent="1" target="7-IjwTOYMT7MXyIy--N_-66">
          <mxGeometry relative="1" as="geometry">
            <mxPoint x="237.92999999999995" y="476" as="sourcePoint" />
            <mxPoint x="237.92999999999995" y="366" as="targetPoint" />
          </mxGeometry>
        </mxCell>
        <mxCell id="7-IjwTOYMT7MXyIy--N_-72" value="&lt;font style=&quot;font-size: 30px;&quot;&gt;RFQ Online Software Architecture Diagram&lt;/font&gt;" style="text;html=1;strokeColor=none;fillColor=none;align=center;verticalAlign=middle;whiteSpace=wrap;rounded=0;" vertex="1" parent="1">
          <mxGeometry x="242.42" y="40" width="665.68" height="120" as="geometry" />
        </mxCell>
      </root>
    </mxGraphModel>
  </diagram>
</mxfile>
